#!OML:ASF F:\VICON\USERDATA\INSTALL\rory3\rory3.ASF
:FULLY-SPECIFIED
:DEGREES
246
root 1.3436 17.7815 -17.3896 2.25601 -0.914471 -0.317134
lowerback 7.22834 0.080283 -0.704666
upperback -0.241825 0.152982 2.43407
thorax -4.31693 0.118361 2.90661
lowerneck -18.9024 -4.16521 -9.58814
upperneck 15.1054 -4.41549 7.064
head 8.16419 -1.94959 3.38424
rclavicle -3.77691e-015 8.74653e-015
rhumerus -35.2982 -15.3374 -74.8699
rradius 29.7214
rwrist 8.43505
rhand -13.4766 12.111
rfingers 7.12502
rthumb 12.6338 -17.4869
lclavicle -3.77691e-015 8.74653e-015
lhumerus -36.3285 15.2191 79.3077
lradius 23.507
lwrist -14.5556
lhand -11.5404 30.0769
lfingers 7.12502
lthumb 14.4999 59.5502
rfemur -8.26144 4.35179 20.3569
rtibia 21.4164
rfoot -9.76139 -9.45956
rtoes 2.1507
lfemur -8.48322 -3.27965 -20.9694
ltibia 21.2701
lfoot -11.8379 4.78618
ltoes 3.36468
247
root 1.34339 17.7848 -17.3919 2.2919 -0.863867 -0.383179
lowerback 6.94005 0.0647296 -0.685765
upperback -0.159158 0.131549 2.45508
thorax -4.06745 0.104433 2.91774
lowerneck -19.134 -4.19853 -9.66368
upperneck 15.3074 -4.44365 7.14967
head 8.27857 -1.95545 3.42279
rclavicle -7.45443e-016 -6.36111e-015
rhumerus -35.0101 -15.1823 -75.0263
rradius 29.8995
rwrist 8.18979
rhand -13.3983 12.3393
rfingers 7.12502
rthumb 12.7092 -17.254
lclavicle -7.45443e-016 -6.36111e-015
lhumerus -35.9456 15.1794 79.2766
lradius 23.6239
lwrist -14.3978
lhand -11.5903 29.9755
lfingers 7.12502
lthumb 14.4518 59.4523
rfemur -8.15544 4.43067 20.4411
rtibia 21.1268
rfoot -9.61833 -9.57491
rtoes 1.94809
lfemur -8.44885 -3.43887 -20.8801
ltibia 21.1939
lfoot -11.8398 4.84638
ltoes 3.00866
248
root 1.34416 17.7931 -17.3933 2.38974 -0.809462 -0.358489
lowerback 6.60885 0.0227081 -0.722864
upperback -0.111366 0.0692984 2.44314
thorax -3.82799 0.0714013 2.93013
lowerneck -19.2099 -4.16514 -9.70679
upperneck 15.3165 -4.39589 7.23576
head 8.29352 -1.92534 3.46549
rclavicle 7.05686e-015 2.54444e-014
rhumerus -34.7394 -15.0295 -75.218
rradius 30.1161
rwrist 8.11027
rhand -13.174 12.4232
rfingers 7.12502
rthumb 12.9254 -17.1565
lclavicle 7.05686e-015 2.54444e-014
lhumerus -35.7273 14.857 79.3362
lradius 23.9848
lwrist -13.8948
lhand -11.4177 30.1054
lfingers 7.12502
lthumb 14.6181 59.5702
rfemur -8.11006 4.41593 20.3954
rtibia 20.8789
rfoot -9.59715 -9.58271
rtoes 2.38681
lfemur -8.52962 -3.4566 -20.9107
ltibia 21.0982
lfoot -11.6932 4.84332
ltoes 3.31886
249
root 1.34481 17.7986 -17.3947 2.41285 -0.82363 -0.367946
lowerback 6.52447 -0.0089197 -0.751597
upperback -0.1865 0.0265339 2.46389
thorax -3.85614 0.0518447 2.97217
lowerneck -18.9968 -4.09666 -9.74739
upperneck 15.2455 -4.30832 7.23591
head 8.22567 -1.89016 3.48442
rclavicle 6.55989e-015 1.74931e-014
rhumerus -34.6703 -14.7279 -75.3563
rradius 30.3485
rwrist 8.00789
rhand -13.1344 12.6238
rfingers 7.12502
rthumb 12.9636 -16.9535
lclavicle 6.55989e-015 1.74931e-014
lhumerus -35.7778 14.6336 79.3465
lradius 24.3082
lwrist -13.3143
lhand -11.9357 28.9638
lfingers 7.12502
lthumb 14.119 58.4641
rfemur -8.02802 4.38683 20.3888
rtibia 20.7059
rfoot -9.57001 -9.48306
rtoes 2.87637
lfemur -8.51078 -3.33664 -20.9014
ltibia 20.9452
lfoot -11.5747 4.73243
ltoes 3.63602
250
root 1.34548 17.796 -17.3949 2.29114 -1.00025 -0.476019
lowerback 6.68148 0.0236367 -0.696763
upperback -0.280072 0.0781914 2.49929
thorax -4.04466 0.079441 2.97477
lowerneck -18.8123 -4.08056 -9.70663
upperneck 15.3063 -4.2914 7.0993
head 8.20844 -1.89744 3.4349
rclavicle 3.72721e-015 -9.54166e-015
rhumerus -34.6041 -14.3574 -75.5454
rradius 30.5296
rwrist 7.72644
rhand -13.3223 12.2414
rfingers 7.12502
rthumb 12.7825 -17.3472
lclavicle 3.72721e-015 -9.54166e-015
lhumerus -35.7375 14.6652 79.2508
lradius 24.3674
lwrist -12.9316
lhand -12.6542 28.0996
lfingers 7.12502
lthumb 13.4265 57.6469
rfemur -7.85341 4.42316 20.5035
rtibia 20.5682
rfoot -9.48363 -9.34679
rtoes 2.6493
lfemur -8.23801 -3.23946 -20.7823
ltibia 20.7927
lfoot -11.6194 4.71803
ltoes 3.4903
251
root 1.3476 17.7952 -17.3945 2.18983 -1.08279 -0.380159
lowerback 6.66624 0.050385 -0.810777
upperback -0.276094 0.103344 2.46707
thorax -4.03354 0.0938389 3.00299
lowerneck -18.7623 -4.11603 -9.70439
upperneck 15.3532 -4.33915 7.05602
head 8.21883 -1.92549 3.41419
rclavicle -1.2921e-015 -7.95139e-016
rhumerus -34.3644 -14.02 -75.8028
rradius 30.7041
rwrist 7.44731
rhand -13.4449 12.1354
rfingers 7.12502
rthumb 12.6643 -17.4606
lclavicle -1.2921e-015 -7.95139e-016
lhumerus -35.4383 14.5424 79.2439
lradius 24.4646
lwrist -12.9407
lhand -12.6094 27.9996
lfingers 7.12502
lthumb 13.4697 57.544
rfemur -7.71084 4.33134 20.3774
rtibia 20.4495
rfoot -9.44153 -9.15935
rtoes 2.69746
lfemur -7.98974 -3.19973 -20.902
ltibia 20.6465
lfoot -11.6628 4.75563
ltoes 2.96655
252
root 1.3497 17.7988 -17.3947 2.16608 -1.01696 -0.291021
lowerback 6.45126 0.00392399 -0.918354
upperback -0.212884 0.0314879 2.47783
thorax -3.84283 0.0578297 3.08017
lowerneck -18.9073 -4.08675 -9.86055
upperneck 15.4545 -4.26523 7.15455
head 8.27724 -1.88794 3.48362
rclavicle 1.19271e-014 1.59028e-015
rhumerus -34.1093 -13.5874 -76.0573
rradius 30.9566
rwrist 7.29434
rhand -13.7806 12.6027
rfingers 7.12502
rthumb 12.3406 -17.0131
lclavicle 1.19271e-014 1.59028e-015
lhumerus -35.1937 14.4096 79.34
lradius 24.8533
lwrist -12.9926
lhand -12.315 28.5446
lfingers 7.12502
lthumb 13.7535 58.07
rfemur -7.61416 4.08266 20.2494
rtibia 20.3535
rfoot -9.48294 -8.94269
rtoes 3.16504
lfemur -7.90477 -3.07741 -21.0281
ltibia 20.4933
lfoot -11.5445 4.67522
ltoes 2.74194
253
root 1.35008 17.8024 -17.3977 2.07474 -0.978178 -0.227278
lowerback 6.44999 -0.0359575 -1.02723
upperback -0.208293 -0.0296004 2.49054
thorax -3.83368 0.029591 3.16085
lowerneck -18.9692 -4.01274 -9.98143
upperneck 15.5513 -4.14574 7.24383
head 8.31427 -1.82933 3.5509
rclavicle -3.13086e-015 4.77083e-015
rhumerus -34.0408 -13.0814 -76.3054
rradius 31.3865
rwrist 7.05772
rhand -13.9438 12.302
rfingers 7.12502
rthumb 12.1833 -17.3232
lclavicle -3.13086e-015 4.77083e-015
lhumerus -35.142 14.2577 79.4361
lradius 25.2091
lwrist -12.1508
lhand -13.3725 28.3504
lfingers 7.12502
lthumb 12.7341 57.9421
rfemur -7.46434 3.84556 20.1632
rtibia 20.2884
rfoot -9.49778 -8.73969
rtoes 3.09332
lfemur -7.75631 -2.98885 -21.1181
ltibia 20.3528
lfoot -11.4165 4.61685
ltoes 2.90802
254
root 1.34695 17.8035 -17.402 1.99652 -0.938272 -0.290152
lowerback 6.52548 -0.0730094 -1.02311
upperback -0.264128 -0.0765596 2.51774
thorax -3.9312 0.00813054 3.19258
lowerneck -18.8988 -4.01692 -10.0536
upperneck 15.6978 -4.14881 7.26219
head 8.35374 -1.83579 3.57087
rclavicle -1.49089e-016 -4.77083e-015
rhumerus -33.974 -12.7632 -76.5092
rradius 31.7228
rwrist 6.89898
rhand -13.6383 12.0878
rfingers 7.12502
rthumb 12.4779 -17.5197
lclavicle -1.49089e-016 -4.77083e-015
lhumerus -35.1418 14.0284 79.4982
lradius 25.2236
lwrist -10.3983
lhand -16.0374 25.7093
lfingers 7.12502
lthumb 10.164 55.4438
rfemur -7.31151 3.77082 20.245
rtibia 20.1682
rfoot -9.47139 -8.69874
rtoes 2.98999
lfemur -7.62601 -3.00779 -21.0186
ltibia 20.2866
lfoot -11.4203 4.54787
ltoes 2.76962
255
root 1.34372 17.8021 -17.4075 2.04053 -0.886971 -0.385969
lowerback 6.42785 -0.0959902 -0.943024
upperback -0.271369 -0.101235 2.5175
thorax -3.88227 -0.00625936 3.14859
lowerneck -18.9437 -4.09635 -10.0112
upperneck 15.6961 -4.26642 7.26759
head 8.37121 -1.88725 3.54977
rclavicle 1.49089e-015 -1.59028e-015
rhumerus -33.8037 -12.6064 -76.7317
rradius 32.0297
rwrist 6.96663
rhand -13.7117 12.6616
rfingers 7.12502
rthumb 12.4071 -16.9502
lclavicle 1.49089e-015 -1.59028e-015
lhumerus -34.8462 14.0734 79.4298
lradius 25.0866
lwrist -9.54597
lhand -17.7863 22.8374
lfingers 7.12502
lthumb 8.47662 52.6473
rfemur -7.3107 3.83445 20.3688
rtibia 20.0381
rfoot -9.42671 -8.84051
rtoes 2.36676
lfemur -7.64036 -3.00886 -20.8664
ltibia 20.2285
lfoot -11.4223 4.39582
ltoes 2.93318
256
root 1.34107 17.8069 -17.4117 2.08281 -0.857593 -0.414507
lowerback 6.32469 -0.0890827 -0.876014
upperback -0.297986 -0.0899155 2.43944
thorax -3.85255 -0.00285056 3.0276
lowerneck -18.9782 -4.12494 -9.93414
upperneck 15.693 -4.34578 7.37506
head 8.3843 -1.90833 3.56338
rclavicle 1.10822e-014 -6.36111e-015
rhumerus -33.787 -12.5004 -77.0011
rradius 32.4205
rwrist 6.9263
rhand -13.8563 12.7633
rfingers 7.12502
rthumb 12.2677 -16.8568
lclavicle 1.10822e-014 -6.36111e-015
lhumerus -34.52 13.6209 79.4956
lradius 25.4317
lwrist -9.31443
lhand -17.6036 23.1964
lfingers 7.12502
lthumb 8.65285 52.9991
rfemur -7.32016 3.87006 20.4037
rtibia 19.9361
rfoot -9.37755 -8.84365
rtoes 2.31182
lfemur -7.7057 -2.79584 -20.8178
ltibia 20.1709
lfoot -11.3419 4.16283
ltoes 3.43245
